<?xml version="1.0" encoding="utf-8"?>
<!-- Generator: Adobe Illustrator 26.1.0, SVG Export Plug-In . SVG Version: 6.00 Build 0)  -->
<!DOCTYPE svg PUBLIC "-//W3C//DTD SVG 1.1//EN" "http://www.w3.org/Graphics/SVG/1.1/DTD/svg11.dtd" [
	<!ENTITY ns_extend "http://ns.adobe.com/Extensibility/1.0/">
	<!ENTITY ns_ai "http://ns.adobe.com/AdobeIllustrator/10.0/">
	<!ENTITY ns_graphs "http://ns.adobe.com/Graphs/1.0/">
	<!ENTITY ns_vars "http://ns.adobe.com/Variables/1.0/">
	<!ENTITY ns_imrep "http://ns.adobe.com/ImageReplacement/1.0/">
	<!ENTITY ns_sfw "http://ns.adobe.com/SaveForWeb/1.0/">
	<!ENTITY ns_custom "http://ns.adobe.com/GenericCustomNamespace/1.0/">
	<!ENTITY ns_adobe_xpath "http://ns.adobe.com/XPath/1.0/">
]>
<svg version="1.1" id="Character" xmlns:x="&ns_extend;" xmlns:i="&ns_ai;" xmlns:graph="&ns_graphs;"
	 xmlns="http://www.w3.org/2000/svg" xmlns:xlink="http://www.w3.org/1999/xlink" x="0px" y="0px" viewBox="0 0 792 1224"
	 style="enable-background:new 0 0 792 1224;" xml:space="preserve">
<style type="text/css">
	.st0{fill:#57D5F2;}
	.st1{filter:url(#Adobe_OpacityMaskFilter);}
	.st2{filter:url(#Adobe_OpacityMaskFilter_00000003087740695928768770000017803569338642864799_);}
	.st3{mask:url(#SVGID_1_);fill:url(#SVGID_00000013903827706786476710000003081167731708617647_);}
	.st4{opacity:0.3;fill:url(#SVGID_00000097495196235605299170000003462463631655202976_);}
	.st5{filter:url(#Adobe_OpacityMaskFilter_00000038413710413038132720000002104958042528760738_);}
	.st6{filter:url(#Adobe_OpacityMaskFilter_00000139280551357365907920000006096104438698640560_);}
	
		.st7{mask:url(#SVGID_00000145023366819554920590000014105775042983202949_);fill:url(#SVGID_00000078727685202225434050000011240018960552018562_);}
	.st8{opacity:0.3;fill:url(#SVGID_00000023967642983192334250000010660833302627051917_);}
	.st9{fill:#39B4BC;}
	.st10{fill:#9D6E33;}
	.st11{fill:#844A00;}
	.st12{fill:#CBCBCB;}
	.st13{fill:#A8A8A8;}
	.st14{fill:#DBEFEE;}
	.st15{fill:url(#SVGID_00000057124701786725817940000018043795120173771660_);}
	.st16{fill:url(#SVGID_00000090266337688102737910000008996461655254309766_);}
	.st17{fill:#A07A33;}
	.st18{fill:url(#SVGID_00000111168988683740625700000009446235287429022392_);}
	.st19{fill:url(#SVGID_00000123413872590079076130000016550086211557518482_);}
	.st20{fill:#FF6100;}
	.st21{fill:url(#SVGID_00000130623251916303694300000010318198572037275050_);}
	.st22{fill:url(#SVGID_00000090282907014055744440000010169687204053589888_);}
	.st23{fill:#2D2C2E;}
	.st24{fill:#8790B3;}
	.st25{fill:url(#SVGID_00000155124558948577330390000005867093848756063890_);}
	.st26{fill:url(#SVGID_00000114069032039433419110000016019351164352064434_);}
	.st27{fill:url(#SVGID_00000110462717225642423660000005546125328875265198_);}
	.st28{fill:url(#SVGID_00000160157945177193253470000007265084739158670762_);}
	.st29{fill:url(#SVGID_00000182526237646696957240000003893467960553957011_);}
	.st30{fill:url(#SVGID_00000106132306958222049870000004964599727205662640_);}
	.st31{fill:url(#SVGID_00000000199606563830335630000017097147725173702788_);}
	.st32{fill:#FBE7D8;}
	.st33{fill:url(#SVGID_00000176752000879126477540000005160671328067695527_);}
	.st34{fill:url(#SVGID_00000021831979586025729920000014000768532011774861_);}
	.st35{fill:url(#SVGID_00000063614027519153773450000008691687349384209066_);}
	.st36{clip-path:url(#SVGID_00000155112774066686530870000004954497818398313878_);}
	.st37{fill:#FFFFFF;}
	.st38{clip-path:url(#SVGID_00000094589556996956065410000008582345357992137886_);}
	.st39{fill:#D7CEC7;}
	.st40{clip-path:url(#SVGID_00000141414389519391073890000007046079844739379642_);}
	.st41{fill:#EFEBE9;}
	.st42{fill:url(#SVGID_00000032632384998839249510000017112499644575959462_);}
	.st43{fill:url(#SVGID_00000088849310142117336860000001852752313785051304_);}
	.st44{fill:url(#SVGID_00000005962061619271669900000008088812111116677524_);}
	.st45{fill:#BF5000;}
	.st46{fill:url(#SVGID_00000145017469538466168980000012303029173901866427_);}
	.st47{fill:url(#SVGID_00000127002316733435535900000014935644506406162823_);}
	.st48{fill:url(#SVGID_00000128461466725278000290000010634317330007572101_);}
	.st49{clip-path:url(#SVGID_00000172417071698016252780000001222345608244571069_);}
	.st50{fill:url(#SVGID_00000174578338413025801260000005676594171315320960_);}
	.st51{fill:url(#SVGID_00000052790183053133865200000007500496237436472754_);}
	.st52{fill:#231F20;}
	.st53{fill:url(#SVGID_00000016797425169455606390000001827364924622273417_);}
	.st54{clip-path:url(#SVGID_00000075841305251675288510000001979063370606837179_);}
	.st55{fill:url(#SVGID_00000099620487582389590480000013461055866554962320_);}
	.st56{fill:url(#SVGID_00000055674280689874060560000010802116696179990431_);}
	.st57{fill:url(#SVGID_00000135669931826483639360000007852783695007798973_);}
	.st58{fill:#E0A57E;}
	.st59{fill:#B94600;}
	.st60{fill:url(#SVGID_00000053506346739258943540000015390957633592727721_);}
	.st61{fill:#88D2D7;}
	.st62{fill:url(#SVGID_00000007424612971748157100000015213180590167108994_);}
	.st63{fill:url(#SVGID_00000117650148014309646950000010048551574874803389_);}
	.st64{fill:#A59860;}
	.st65{fill:url(#SVGID_00000181806329728377736820000001322764697360526737_);}
	.st66{fill:url(#SVGID_00000003787713413001310440000018392291071465253042_);}
	.st67{fill:#7B7979;}
	.st68{fill:#E8384C;}
	.st69{fill:#F18894;}
	.st70{fill:#EE6F2C;}
	.st71{fill:#094A59;}
	.st72{fill:#3D7D92;}
	.st73{fill:#E7F6F7;}
	.st74{fill:url(#SVGID_00000010991741561162444330000005703769474182068405_);}
	.st75{fill:#C68C47;}
	.st76{fill:#B77B39;}
	.st77{fill:#CBCD45;}
	.st78{fill:#8F9207;}
	.st79{fill:#CC233C;}
	.st80{fill:#6B3C04;}
	.st81{fill:#502D03;}
	.st82{fill:#BBB101;}
	.st83{fill:#8E5D28;}
	.st84{fill:#C4A885;}
	.st85{fill:#DBB35D;}
	.st86{fill:#C49B49;}
</style>
<metadata>
	<sfw  xmlns="&ns_sfw;">
		<slices></slices>
		<sliceSourceBounds  bottomLeftOrigin="true" height="1224" width="792" x="5159" y="-1212"></sliceSourceBounds>
	</sfw>
</metadata>
<g>
	<g>
		<g>
			<g>
				<rect class="st0" width="792" height="1224"/>
			</g>
		</g>
	</g>
	<g>
		<defs>
			<filter id="Adobe_OpacityMaskFilter" filterUnits="userSpaceOnUse" x="310.2" y="0" width="481.8" height="720.8">
				<feFlood  style="flood-color:white;flood-opacity:1" result="back"/>
				<feBlend  in="SourceGraphic" in2="back" mode="normal"/>
			</filter>
		</defs>
		<mask maskUnits="userSpaceOnUse" x="310.2" y="0" width="481.8" height="720.8" id="SVGID_1_">
			<g class="st1">
				<defs>
					
						<filter id="Adobe_OpacityMaskFilter_00000159460602562197950580000003577995265431089565_" filterUnits="userSpaceOnUse" x="310.2" y="0" width="481.8" height="720.8">
						<feFlood  style="flood-color:white;flood-opacity:1" result="back"/>
						<feBlend  in="SourceGraphic" in2="back" mode="normal"/>
					</filter>
				</defs>
				<mask maskUnits="userSpaceOnUse" x="310.2" y="0" width="481.8" height="720.8" id="SVGID_1_">
					<g style="filter:url(#Adobe_OpacityMaskFilter_00000159460602562197950580000003577995265431089565_);">
					</g>
				</mask>
				
					<linearGradient id="SVGID_00000039120913756492167750000005025904429680810675_" gradientUnits="userSpaceOnUse" x1="742.0602" y1="-175.7294" x2="466.1151" y2="645.652">
					<stop  offset="0" style="stop-color:#FFFFFF"/>
					<stop  offset="1" style="stop-color:#000000"/>
				</linearGradient>
				<polygon style="mask:url(#SVGID_1_);fill:url(#SVGID_00000039120913756492167750000005025904429680810675_);" points="695.4,0 
					792,0 575,710.3 310.2,720.8 				"/>
			</g>
		</mask>
		
			<linearGradient id="SVGID_00000027583444893270867020000013289975529765793959_" gradientUnits="userSpaceOnUse" x1="742.0602" y1="-175.7294" x2="466.1151" y2="645.652">
			<stop  offset="0" style="stop-color:#FFFFFF"/>
			<stop  offset="1" style="stop-color:#F5F5F5"/>
		</linearGradient>
		<polygon style="opacity:0.3;fill:url(#SVGID_00000027583444893270867020000013289975529765793959_);" points="695.4,0 792,0 
			575,710.3 310.2,720.8 		"/>
		<defs>
			
				<filter id="Adobe_OpacityMaskFilter_00000047032362845918330260000016407434663542137751_" filterUnits="userSpaceOnUse" x="0" y="0" width="655.6" height="736.2">
				<feFlood  style="flood-color:white;flood-opacity:1" result="back"/>
				<feBlend  in="SourceGraphic" in2="back" mode="normal"/>
			</filter>
		</defs>
		
			<mask maskUnits="userSpaceOnUse" x="0" y="0" width="655.6" height="736.2" id="SVGID_00000139972996092604923740000017878979477341172101_">
			<g style="filter:url(#Adobe_OpacityMaskFilter_00000047032362845918330260000016407434663542137751_);">
				<defs>
					
						<filter id="Adobe_OpacityMaskFilter_00000170256314771840641140000013598019368065467564_" filterUnits="userSpaceOnUse" x="0" y="0" width="655.6" height="736.2">
						<feFlood  style="flood-color:white;flood-opacity:1" result="back"/>
						<feBlend  in="SourceGraphic" in2="back" mode="normal"/>
					</filter>
				</defs>
				
					<mask maskUnits="userSpaceOnUse" x="0" y="0" width="655.6" height="736.2" id="SVGID_00000139972996092604923740000017878979477341172101_">
					<g style="filter:url(#Adobe_OpacityMaskFilter_00000170256314771840641140000013598019368065467564_);">
					</g>
				</mask>
				
					<linearGradient id="SVGID_00000134958397260505732020000012225059169701395871_" gradientUnits="userSpaceOnUse" x1="594.1016" y1="-190.5704" x2="17.9387" y2="637.4384">
					<stop  offset="0" style="stop-color:#FFFFFF"/>
					<stop  offset="1" style="stop-color:#000000"/>
				</linearGradient>
				
					<polygon style="mask:url(#SVGID_00000139972996092604923740000017878979477341172101_);fill:url(#SVGID_00000134958397260505732020000012225059169701395871_);" points="
					515.3,0 655.6,0 192.8,730.6 0,736.2 0,318.8 				"/>
			</g>
		</mask>
		
			<linearGradient id="SVGID_00000168798648275548929930000016017722425421756564_" gradientUnits="userSpaceOnUse" x1="594.1016" y1="-190.5704" x2="17.9387" y2="637.4384">
			<stop  offset="0" style="stop-color:#FFFFFF"/>
			<stop  offset="1" style="stop-color:#F5F5F5"/>
		</linearGradient>
		<polygon style="opacity:0.3;fill:url(#SVGID_00000168798648275548929930000016017722425421756564_);" points="515.3,0 655.6,0 
			192.8,730.6 0,736.2 0,318.8 		"/>
	</g>
	<ellipse class="st9" cx="272.6" cy="1142.6" rx="145.2" ry="15"/>
	<ellipse class="st9" cx="558.1" cy="1143.3" rx="108.9" ry="11.3"/>
</g>
<g>
	<g>
		<path class="st10" d="M202.5,904.4l-38.3,236.5c-0.1,0.6,0.1,1.2,0.4,1.6s0.9,0.7,1.5,0.7h3.4c0.9,0,1.7-0.6,1.8-1.5l45.1-237.3
			H202.5z"/>
		<path class="st10" d="M240.4,567.1L194.3,902c-0.1,0.7,0.1,1.4,0.5,1.9c0.5,0.5,1.1,0.8,1.8,0.8h1.7c1.1,0,2-0.8,2.2-1.8
			l56.6-335.8H240.4z"/>
		<path class="st10" d="M378.8,1143.2c0.7,0,1.4-0.3,1.9-0.9c0.5-0.5,0.7-1.3,0.6-2L343,904.4h-14l45.1,237.2c0.2,0.9,1,1.6,2,1.6
			H378.8z"/>
		<path class="st10" d="M341.7,896.7c0.9,0,1.7-0.4,2.2-1c0.6-0.7,0.8-1.5,0.7-2.4l-46-334.2h-16.8l56.6,335.7
			c0.2,1.1,1.2,1.9,2.4,1.9H341.7z"/>
		<g>
			<g>
				<g>
					<polygon class="st11" points="202.5,904.4 197.7,934 207.9,947.5 216.5,904.4 					"/>
				</g>
			</g>
		</g>
		<polygon class="st11" points="343,904.4 329,904.4 337.1,945.6 351.4,956.6 		"/>
		<path class="st10" d="M271.1,1143.2c0.7,0,1.4-0.3,1.9-0.9c0.5-0.5,0.7-1.3,0.6-2l3.7-235.9h-14l3.7,237.2c0.2,0.9,1,1.6,2,1.6
			H271.1z"/>
		<path class="st10" d="M269.7,874c0.9,0,1.7-0.4,2.2-1c0.6-0.7,0.8-1.5,0.7-2.4l6.1-334.2h-16.8l4.5,335.7c0.2,1.1,1.2,1.9,2.4,1.9
			H269.7z"/>
		<polygon class="st11" points="277.2,904.4 263.2,904.4 264.2,945.6 276.3,957.3 		"/>
		<path class="st12" d="M371.1,629.2c-0.2-3.1-2.1-5.7-4.9-6.9l-8.3-3.4l5.2,180.9l8.7,94.5l11.4,10.3c4.8-1.3,3.9-7.4,3.9-7.4
			S372.7,658.8,371.1,629.2z"/>
		<polygon class="st13" points="383.4,892.6 150.5,889.8 165.4,901.6 396.1,904.6 		"/>
		<path class="st14" d="M175.1,635.5c0.1-2.7,2.3-4.8,4.9-5l177.8-11.6l13.8,275H169.3c-2.1,0-4.2-0.9-5.7-2.4
			c-1.5-1.6-2.2-3.6-2.1-5.8L175.1,635.5z"/>
		<polygon class="st10" points="146,889.8 151.3,904.6 399.4,904.6 403.9,887.6 		"/>
	</g>
	<g>
		
			<linearGradient id="SVGID_00000116917968322993719240000004744939785445422492_" gradientUnits="userSpaceOnUse" x1="-2647.2219" y1="9785.1777" x2="-2595.2302" y2="9745.7559" gradientTransform="matrix(-0.5225 0.8527 -0.8527 -0.5225 5887.314 -7114.4946)">
			<stop  offset="0" style="stop-color:#FFDE17"/>
			<stop  offset="1" style="stop-color:#E5C213"/>
		</linearGradient>
		<path style="fill:url(#SVGID_00000116917968322993719240000004744939785445422492_);" d="M470.3,735.2c0,0-17.7-38.4-65.3-57.2
			c0,0-4.5,1.4-5.6,6.5c0,0,25.9,64,68.1,81.3C481.1,744.7,469.1,751.5,470.3,735.2z"/>
		
			<linearGradient id="SVGID_00000140719114217508761820000008198061643890285698_" gradientUnits="userSpaceOnUse" x1="-4957.6016" y1="6899.9824" x2="-4905.6113" y2="6860.5615" gradientTransform="matrix(0.2698 0.9629 -0.9629 0.2698 -4483.3574 -6228.4346)">
			<stop  offset="0" style="stop-color:#FFDE17"/>
			<stop  offset="1" style="stop-color:#E5C213"/>
		</linearGradient>
		<path style="fill:url(#SVGID_00000140719114217508761820000008198061643890285698_);" d="M579.3,676.7c0,0,6-21.5-3-25
			c-3.5-1.4-15.5,14.6-21.8,13.8c-9.5-1.3-21.5-1.2-36.3,4.9c0,0-34.8,27.2-60.1,62.9c-2.2,12.5,3.8,24.7,9.3,32.6
			C467.4,765.8,551.6,727.7,579.3,676.7z"/>
		<path class="st17" d="M405.8,677.5l4.5,2.7c0,0-4.8,2.1-8.3,9c0,0-4.5-3.5-5-6.4C396.9,682.8,401.3,677.7,405.8,677.5z"/>
		
			<linearGradient id="SVGID_00000073718337498089487540000004354391556065645490_" gradientUnits="userSpaceOnUse" x1="554.1442" y1="861.6483" x2="542.6506" y2="785.7896">
			<stop  offset="0" style="stop-color:#7A7757"/>
			<stop  offset="1" style="stop-color:#686447"/>
		</linearGradient>
		<path style="fill:url(#SVGID_00000073718337498089487540000004354391556065645490_);" d="M511.2,849.2l2.4,34.6l38.4,17l50.3-5.2
			l-0.4-6.2c-0.5-8.2-3.2-16.1-7.9-22.8l-12.1-17.5H511.2z"/>
		<g>
			
				<linearGradient id="SVGID_00000026847126749625296210000013779720908576874899_" gradientUnits="userSpaceOnUse" x1="-2007.2988" y1="1003.6086" x2="-1988.755" y2="968.3754" gradientTransform="matrix(-1 7.600000e-03 7.600000e-03 1 -1576.9189 8.4597)">
				<stop  offset="0" style="stop-color:#414042"/>
				<stop  offset="1" style="stop-color:#313032"/>
			</linearGradient>
			<path style="fill:url(#SVGID_00000026847126749625296210000013779720908576874899_);" d="M494.7,1131.8
				c5.3-0.6,11.2-0.1,15.6-2.8c3.7-2.2,8.4-5,13.2-7.2l10.7,0.9c0.2,0,0.4,0.1,0.5,0.2c1,0.9,4.8,4.9,4.3,15.2c0,0-15.8,2-26.3,2.3
				c-10.5,0.3-26.3-1.2-29.1-3.6C483.5,1136.9,482.7,1133.3,494.7,1131.8z"/>
			<path class="st20" d="M536.3,1114.3l-2.2,9c0,0-1.8,1.7-4.1,1.4c-1.6-0.2-3.2-2.1-5.5-2.2c-0.5,0-0.8-0.4-0.8-0.9l0-7.6
				L536.3,1114.3z"/>
			
				<linearGradient id="SVGID_00000013900633384155501210000007801218232056938115_" gradientUnits="userSpaceOnUse" x1="-1939.6901" y1="976.8998" x2="-1948.3822" y2="988.7213" gradientTransform="matrix(-1 7.600000e-03 7.600000e-03 1 -1576.9189 8.4597)">
				<stop  offset="0" style="stop-color:#414042"/>
				<stop  offset="1" style="stop-color:#313032"/>
			</linearGradient>
			<path style="fill:url(#SVGID_00000013900633384155501210000007801218232056938115_);" d="M501.6,1131.3c0,0,1.5,7.1,5.2,9.2
				c0,0-17.7,0.9-23.9-3.4c0,0,0.7-5,11.1-5.4C504.3,1131.3,501.6,1131.3,501.6,1131.3z"/>
			
				<linearGradient id="SVGID_00000152233808645979833380000005748283507708073657_" gradientUnits="userSpaceOnUse" x1="-2087.74" y1="1136.6592" x2="-2086.8621" y2="1139.1462" gradientTransform="matrix(-1 7.600000e-03 7.600000e-03 1 -1576.9189 8.4597)">
				<stop  offset="0" style="stop-color:#414042"/>
				<stop  offset="1" style="stop-color:#313032"/>
			</linearGradient>
			<path style="fill:url(#SVGID_00000152233808645979833380000005748283507708073657_);" d="M509.5,1130.7c-0.2-0.3-0.4-0.6-0.6-0.9
				c0.4-0.2,0.7-0.3,1-0.5c0.1,0.2,0.3,0.5,0.5,0.7c1.1,1.4,3,2.2,5.6,2.4c4,0.3,7,1.6,8.8,3.8c0.8,1,1.3,2.2,1.5,3.5
				c-0.4,0-0.8,0.1-1.2,0.1c-0.1-1-0.6-2-1.2-2.9c-1.5-1.9-4.2-3.1-7.9-3.3C513,1133.2,510.8,1132.3,509.5,1130.7z"/>
			<path class="st23" d="M539,1137.6c0,0,0.5,1.6,0.2,3.4c-0.1,0.4-0.4,0.7-0.8,0.7c-2,0.3-8.4,1.2-12.5,0.9l0.1-1.5
				c0,0-16.1,2.4-26.9,1.7c-8.6-0.5-14.1-3.3-16.1-4.4c-0.4-0.2-0.6-0.8-0.4-1.2l0.5-0.9C483.1,1136.3,494,1144.7,539,1137.6z"/>
			<path class="st24" d="M522.8,1127.7c0,0,0.1,0,0.1,0c0.1-0.1,0.2-0.3,0.1-0.4c-0.1-0.1-1.4-2.5-3.4-3.8c-0.1-0.1-0.3,0-0.4,0.1
				c-0.1,0.1,0,0.3,0.1,0.4c1.8,1.1,3.2,3.5,3.2,3.5C522.6,1127.7,522.7,1127.7,522.8,1127.7z"/>
			<path class="st24" d="M520.8,1128.6c0,0,0.1,0,0.1,0c0.1-0.1,0.2-0.2,0.1-0.4c0-0.1-1.1-2.5-3.1-3.7c-0.1-0.1-0.3,0-0.4,0.1
				c-0.1,0.1,0,0.3,0.1,0.4c1.8,1.1,2.9,3.4,2.9,3.4C520.6,1128.6,520.7,1128.6,520.8,1128.6z"/>
			<path class="st24" d="M519,1129.4c0,0,0.1,0,0.1,0c0.1-0.1,0.2-0.2,0.1-0.4c0-0.1-1.2-2.6-3.1-3.6c-0.1-0.1-0.3,0-0.4,0.1
				c-0.1,0.1,0,0.3,0.1,0.4c1.7,0.9,2.8,3.3,2.8,3.3C518.7,1129.4,518.8,1129.4,519,1129.4z"/>
		</g>
		<g>
			
				<linearGradient id="SVGID_00000005240371705545590050000011559975463969411974_" gradientUnits="userSpaceOnUse" x1="481.386" y1="945.3268" x2="513.6765" y2="932.4105">
				<stop  offset="0" style="stop-color:#7A7757"/>
				<stop  offset="1" style="stop-color:#686447"/>
			</linearGradient>
			<path style="fill:url(#SVGID_00000005240371705545590050000011559975463969411974_);" d="M551.3,997.9c0-0.1-0.1-0.1-0.1-0.2
				c0,0,4.5-63.6,5.9-82.4l-1.4-58.3l-44.5-5.7c0,0,10,128.9,9.1,148.5C526.3,1003.1,539.3,1008.1,551.3,997.9z"/>
			
				<linearGradient id="SVGID_00000094607302989815384760000013085675072221064373_" gradientUnits="userSpaceOnUse" x1="526.4503" y1="1057.9878" x2="558.741" y2="1045.0715">
				<stop  offset="0" style="stop-color:#7A7757"/>
				<stop  offset="1" style="stop-color:#686447"/>
			</linearGradient>
			<path style="fill:url(#SVGID_00000094607302989815384760000013085675072221064373_);" d="M551.3,997.9c-14.7-6.5-24.5-5.8-31,1.9
				c0,0.4,0,0.8-0.1,1.1c0,0,3.5,75.9,0.3,113.2c-0.1,1.1,0.7,2.1,1.7,2.2c3.6,0.6,11.6,1.4,17.8-0.7c0.3-0.1,0.5-0.3,0.6-0.6
				c1.5-5.8,17-65.5,14.7-101.5C555.4,1013.4,553.4,1000.9,551.3,997.9z"/>
		</g>
		<g>
			
				<linearGradient id="SVGID_00000156565316497340273560000015194570300425619333_" gradientUnits="userSpaceOnUse" x1="-2138.675" y1="1138.3208" x2="-2138.4849" y2="1115.6963" gradientTransform="matrix(-1 0 0 1 -1536.5028 0)">
				<stop  offset="0" style="stop-color:#414042"/>
				<stop  offset="1" style="stop-color:#313032"/>
			</linearGradient>
			<path style="fill:url(#SVGID_00000156565316497340273560000015194570300425619333_);" d="M603.1,1124.2c0,0,9.8,8.8,12,16.7
				l-25.7,0.1c0,0,1.1-11.7,8.2-17.6L603.1,1124.2z"/>
			<path class="st20" d="M603.5,1112.4c0,0,4.5-1.7,0.2,13.1c-0.2,0.8-1.2-0.4-3.3-0.5c-2.4-0.1-3.4,1.4-3.7,0.5
				c-2.1-7.6-0.5-11.4-0.5-11.4L603.5,1112.4z"/>
			
				<linearGradient id="SVGID_00000039092263687477757460000014277984215853827752_" gradientUnits="userSpaceOnUse" x1="-2134.3914" y1="1090.5977" x2="-2135.6082" y2="1105.6351" gradientTransform="matrix(-1 0 0 1 -1536.5028 0)">
				<stop  offset="0" style="stop-color:#414042"/>
				<stop  offset="1" style="stop-color:#313032"/>
			</linearGradient>
			<path style="fill:url(#SVGID_00000039092263687477757460000014277984215853827752_);" d="M614.2,1141.4h-24.4c0,0,0.1-1.2,1.6-3
				c0,0,4.5-4.3,10.8-4.1c6.4,0.2,9.6,1.7,11.3,5.2C613.4,1139.5,614.2,1140.8,614.2,1141.4z"/>
			<path class="st23" d="M614,1143c0.6,0,1-0.4,1-1v-1.1c0,0-10.1-2.9-13.5-2.9c-3,0-12.1,2.9-12.1,2.9v0.9c0,0.6,0.5,1.1,1.1,1.1
				H614z"/>
			<path class="st24" d="M596.5,1132.1c0,0,0.1,0,0.1,0c4.7-2.6,8.7-0.3,8.7-0.2c0.1,0.1,0.3,0,0.4-0.1c0.1-0.1,0-0.3-0.1-0.4
				c0,0-4.3-2.6-9.3,0.2c-0.1,0.1-0.2,0.2-0.1,0.4C596.3,1132,596.4,1132.1,596.5,1132.1z"/>
			<path class="st24" d="M597.2,1130.2c0.1,0,0.1,0,0.2,0c3.3-2.2,7-0.4,7-0.3c0.1,0.1,0.3,0,0.4-0.1c0.1-0.1,0-0.3-0.1-0.4
				c-0.2-0.1-4.1-2-7.6,0.4c-0.1,0.1-0.2,0.3-0.1,0.4C597,1130.2,597.1,1130.2,597.2,1130.2z"/>
			<path class="st24" d="M597.8,1128.5c0,0,0.1,0,0.1,0c2.6-1.4,5.2-0.2,5.2-0.2c0.1,0.1,0.3,0,0.4-0.1c0.1-0.1,0-0.3-0.1-0.4
				c-0.1-0.1-2.8-1.3-5.7,0.2c-0.1,0.1-0.2,0.2-0.1,0.4C597.6,1128.5,597.7,1128.5,597.8,1128.5z"/>
		</g>
		
			<linearGradient id="SVGID_00000152241632113047741860000017975941090937746574_" gradientUnits="userSpaceOnUse" x1="594.959" y1="1028.074" x2="569.3914" y2="859.3264">
			<stop  offset="0" style="stop-color:#7A7757"/>
			<stop  offset="1" style="stop-color:#686447"/>
		</linearGradient>
		<path style="fill:url(#SVGID_00000152241632113047741860000017975941090937746574_);" d="M610.1,1013.2c-0.7-11.5-7-20.9-7-20.9
			c0-0.1,0-0.3,0-0.4c-5-2.9-6.1-6.5-18.6-4.2c-5.9,1.1-8.2,3.9-12,8.2c14.9,71.2,19.9,112.2,20.9,121c0.1,1,1,1.8,2,1.7l13.3-0.6
			c0.5,0,0.8-0.4,0.9-0.9C609.8,1107.7,610.7,1024,610.1,1013.2z"/>
		
			<linearGradient id="SVGID_00000142149706268896798230000013870874905601152654_" gradientUnits="userSpaceOnUse" x1="591.366" y1="1033.0239" x2="567.0227" y2="872.3573">
			<stop  offset="0" style="stop-color:#7A7757"/>
			<stop  offset="1" style="stop-color:#686447"/>
		</linearGradient>
		<path style="fill:url(#SVGID_00000142149706268896798230000013870874905601152654_);" d="M585.3,997.8c7-0.4,13.3-2.9,17.8-6
			c0.3-25.5-0.1-106.7-1.9-114.8c-1.7-8.1-17.7-27.8-17.7-27.8l-51.5,7.6l1.1,13.1c0.6,7.9,4.2,15.3,10.1,20.8l8.3,7.9
			c0,0,3.8,15.2,20.9,96.5c0,0.2,0.1,0.4,0.1,0.6C575.2,997,579.3,998.2,585.3,997.8z"/>
		
			<linearGradient id="SVGID_00000075140359260148825840000000814578694676415404_" gradientUnits="userSpaceOnUse" x1="212.318" y1="405.2304" x2="204.9937" y2="593.22" gradientTransform="matrix(0.9959 9.070000e-02 -9.070000e-02 0.9959 414.6855 56.8804)">
			<stop  offset="0" style="stop-color:#F6B98A"/>
			<stop  offset="1" style="stop-color:#F4C6A6"/>
		</linearGradient>
		<path style="fill:url(#SVGID_00000075140359260148825840000000814578694676415404_);" d="M548.5,617.1l-2.6,28.4
			c0,0-0.1,8.7,7.4,10.5c7.5,1.7,38.1-15.7,38.1-15.7l-7.5-51.6L548.5,617.1z"/>
		<path class="st32" d="M589,625.3l-5.1-36.7l-35.4,28.5l-1.1,11.9C554.1,624.6,567.6,619.3,589,625.3z"/>
		<path class="st14" d="M548.1,631.1l1.4,11.4l-9.7,8.2C539.7,650.6,544.4,633.6,548.1,631.1z"/>
		
			<linearGradient id="SVGID_00000177462438437195289720000015703019962596170919_" gradientUnits="userSpaceOnUse" x1="533.3896" y1="655.7769" x2="546.6611" y2="655.3748">
			<stop  offset="0" style="stop-color:#DBEFEE"/>
			<stop  offset="1" style="stop-color:#BAD8D5"/>
		</linearGradient>
		<path style="fill:url(#SVGID_00000177462438437195289720000015703019962596170919_);" d="M531.7,654.8l9.5,25
			c0,0,10.4-18.8,13.4-30.1c0,0,6.2-10,1.7-12.1c-2.5-1.2-6.4-6-8.3-6.5c0,0-0.5,7.6-1.3,11C546.8,642,541.5,645,531.7,654.8z"/>
		
			<linearGradient id="SVGID_00000052093493098463966120000003685487131976983694_" gradientUnits="userSpaceOnUse" x1="571.4332" y1="662.2864" x2="573.5193" y2="640.7299">
			<stop  offset="0" style="stop-color:#DBEFEE"/>
			<stop  offset="1" style="stop-color:#BAD8D5"/>
		</linearGradient>
		<path style="fill:url(#SVGID_00000052093493098463966120000003685487131976983694_);" d="M601.3,648.3c0,0-45.2,28.7-60,31.5
			c0,0,7.3-21.8,13.3-31.1l1.9-11.2l10.4-6.5l24.3-7.1l5.6,16.9L601.3,648.3z"/>
		<path class="st14" d="M567.4,655.8l-0.7-24.7c0,0,11.1-5.3,24.3-7.1l7.2,16.9L567.4,655.8z"/>
		
			<linearGradient id="SVGID_00000148652453335434707980000014198986327904322700_" gradientUnits="userSpaceOnUse" x1="541.0396" y1="742.4476" x2="648.108" y2="788.3341">
			<stop  offset="0" style="stop-color:#FFDE17"/>
			<stop  offset="1" style="stop-color:#E5C213"/>
		</linearGradient>
		<path style="fill:url(#SVGID_00000148652453335434707980000014198986327904322700_);" d="M534.2,652.4
			c0.1,0.1-20.6,14.3-29.4,51.2c-1.5,6.5-1.7,13.2-0.3,19.8c1.9,9.4,4.7,23.9,4.7,29c0,7.9-5.2,52,2.1,99c0,0,20.3,14.6,75.5,2.1
			c0,0,4.1-74.9,25-97.2c0,0,11.5-72,0-97.2l-12.2-13.4l-56.3,28.7C543.2,674.2,534.5,661.4,534.2,652.4z"/>
		<path class="st17" d="M598.3,643.5c0,0,5.1,3,5.9,7.2c0,0-38.7,24.9-64.5,34.7c0,0-8.5-19.6-9.5-29.6l4.5-3.9l9.9,18.6
			C544.6,670.4,577.6,655.8,598.3,643.5z"/>
		<path class="st20" d="M552.8,643.5c0,0-6.4-6-10.3-6.7c-5.1-0.9-5.6,20.6-2.8,22.1c2.4,1.3,8.6-2.4,13-7V643.5z"/>
		<path class="st20" d="M559.1,642.7c0,0,12.4-7,14.4-5.7c3,2.1,2.5,17.8-1.2,21.3c-5.3,5.1-10.4-3.7-15.3-6.4L559.1,642.7z"/>
		<g>
			<defs>
				<path id="SVGID_00000080174357202677531860000001512242045451063945_" d="M552.8,643.5c0,0-6.4-6-10.3-6.7
					c-5.1-0.9-5.6,20.6-2.8,22.1c2.4,1.3,8.6-2.4,13-7V643.5z"/>
			</defs>
			<clipPath id="SVGID_00000183210852943207810520000010475566943741770899_">
				<use xlink:href="#SVGID_00000080174357202677531860000001512242045451063945_"  style="overflow:visible;"/>
			</clipPath>
			<g style="clip-path:url(#SVGID_00000183210852943207810520000010475566943741770899_);">
				<path class="st37" d="M548.7,641.9c0,1.1-0.9,2-2,2c-1.1,0-2-0.9-2-2c0-1.1,0.9-2,2-2C547.8,639.9,548.7,640.8,548.7,641.9z"/>
				<path class="st37" d="M544.7,648c0,1.1-0.9,2-2,2s-2-0.9-2-2c0-1.1,0.9-2,2-2S544.7,646.9,544.7,648z"/>
				<circle class="st37" cx="548.1" cy="651.9" r="2"/>
				<path class="st37" d="M542.7,639.9c0,1.1-0.9,2-2,2c-1.1,0-2-0.9-2-2c0-1.1,0.9-2,2-2C541.7,637.8,542.7,638.7,542.7,639.9z"/>
				<path class="st37" d="M543.8,655.1c0,1.1-0.9,2-2,2c-1.1,0-2-0.9-2-2c0-1.1,0.9-2,2-2C542.9,653.1,543.8,654,543.8,655.1z"/>
			</g>
		</g>
		<g>
			<defs>
				<path id="SVGID_00000147190098335788799000000007012910082638220953_" d="M559.1,642.7c0,0,12.4-7,14.4-5.7
					c3,2.1,2.5,17.8-1.2,21.3c-5.3,5.1-10.4-3.7-15.3-6.4L559.1,642.7z"/>
			</defs>
			<clipPath id="SVGID_00000085969318683820233940000017892398215559122855_">
				<use xlink:href="#SVGID_00000147190098335788799000000007012910082638220953_"  style="overflow:visible;"/>
			</clipPath>
			<g style="clip-path:url(#SVGID_00000085969318683820233940000017892398215559122855_);">
				<path class="st37" d="M576.6,641.5c0,1.1-0.9,2-2,2c-1.1,0-2-0.9-2-2c0-1.1,0.9-2,2-2C575.7,639.5,576.6,640.4,576.6,641.5z"/>
				<circle class="st37" cx="568.2" cy="646.3" r="2"/>
				<path class="st37" d="M576.6,650.6c0,1.1-0.9,2-2,2c-1.1,0-2-0.9-2-2s0.9-2,2-2C575.7,648.6,576.6,649.5,576.6,650.6z"/>
				<path class="st37" d="M564.7,640.4c0,1.1-0.9,2-2,2c-1.1,0-2-0.9-2-2c0-1.1,0.9-2,2-2C563.8,638.4,564.7,639.3,564.7,640.4z"/>
				<path class="st37" d="M568.2,654.7c0,1.1-0.9,2-2,2c-1.1,0-2-0.9-2-2c0-1.1,0.9-2,2-2C567.3,652.7,568.2,653.6,568.2,654.7z"/>
				<path class="st37" d="M562.7,648.6c0,1.1-0.9,2-2,2c-1.1,0-2-0.9-2-2c0-1.1,0.9-2,2-2C561.8,646.6,562.7,647.5,562.7,648.6z"/>
			</g>
		</g>
		<path class="st39" d="M573.5,656.5c-0.4,0.1-0.9,0.1-1.3,0.1c-6.1,0-11.1-6-11.1-13.4c0-0.6,0-1.1,0.1-1.7
			c-1.3,0.7-2.2,1.2-2.2,1.2l-2.1,9.2c4.9,2.8,10,11.5,15.3,6.4C572.7,657.9,573.2,657.3,573.5,656.5z"/>
		<path class="st39" d="M549,640.3c0.3,1.1,0.5,2.3,0.5,3.5c0,6.6-4.8,12-10.9,12.7c0.3,1.3,0.7,2.1,1.2,2.4c2.4,1.3,8.6-2.4,13-7
			v-8.4C552.8,643.5,551.1,641.9,549,640.3z"/>
		<g>
			<defs>
				<path id="SVGID_00000021819498915484247160000013893491279519636105_" d="M550.5,642.4c0.2-1.2,1.1-2.1,2.2-2l6.1,0.3
					c0.5,0,1,0.3,1.4,0.7c0.4,0.4,0.5,1,0.5,1.6c-0.2,4.1-1.2,12.5-6.3,12.5C549.8,655.5,549.7,648.2,550.5,642.4z"/>
			</defs>
			<use xlink:href="#SVGID_00000021819498915484247160000013893491279519636105_"  style="overflow:visible;fill:#FF6100;"/>
			<clipPath id="SVGID_00000026883036369142257550000016969765265661101472_">
				<use xlink:href="#SVGID_00000021819498915484247160000013893491279519636105_"  style="overflow:visible;"/>
			</clipPath>
			<g style="clip-path:url(#SVGID_00000026883036369142257550000016969765265661101472_);">
				<circle class="st37" cx="553.8" cy="642.2" r="2"/>
				<path class="st37" d="M560.9,647.5c0,1.1-0.9,2-2,2s-2-0.9-2-2c0-1.1,0.9-2,2-2S560.9,646.4,560.9,647.5z"/>
				<path class="st37" d="M553.8,649.7c0,1.1-0.9,2-2,2c-1.1,0-2-0.9-2-2s0.9-2,2-2C552.9,647.7,553.8,648.6,553.8,649.7z"/>
				<path class="st37" d="M558.8,654.8c0,1.1-0.9,2-2,2s-2-0.9-2-2c0-1.1,0.9-2,2-2S558.8,653.7,558.8,654.8z"/>
			</g>
		</g>
		<path class="st41" d="M582.7,770.9c-6.2,41.5-10.7,78.9-38.8,87.6c11,0.2,25.1-1,42.8-5c0,0,4.1-74.9,25-97.2c0,0,6.7-42,4.7-73.1
			C604.8,703.5,587.7,737.7,582.7,770.9z"/>
		
			<linearGradient id="SVGID_00000154401558158434201300000008347130380272997037_" gradientUnits="userSpaceOnUse" x1="630.5474" y1="520.6533" x2="743.7761" y2="569.1799" gradientTransform="matrix(0.991 0.1337 -0.1337 0.991 -5.7512 88.6528)">
			<stop  offset="0" style="stop-color:#FFDE17"/>
			<stop  offset="1" style="stop-color:#E5C213"/>
		</linearGradient>
		<path style="fill:url(#SVGID_00000154401558158434201300000008347130380272997037_);" d="M612.5,660.7c0,0-8.4-1.1-20.1,18.4
			c-4.9,8.2-9.6,19.3-9.9,35.3c0,0,11.6,43.3,34.3,80.7c10.6,7,19.7-0.1,29-2l0,0C645.8,793,648.4,706.4,612.5,660.7z"/>
		<g>
			
				<linearGradient id="SVGID_00000167374181745589113080000009794038142783123873_" gradientUnits="userSpaceOnUse" x1="405.562" y1="512.4614" x2="412.244" y2="512.4614" gradientTransform="matrix(0.998 6.300000e-02 -6.300000e-02 0.998 212.6394 40.405)">
				<stop  offset="0" style="stop-color:#BF5000"/>
				<stop  offset="1" style="stop-color:#9E4204"/>
			</linearGradient>
			<path style="fill:url(#SVGID_00000167374181745589113080000009794038142783123873_);" d="M591.3,567.4c0,0.3,0.4,6.8,0.5,9.1
				c0,0.5-0.1,1-0.4,1.5l-7,9.9l1-15.2L591.3,567.4z"/>
			
				<linearGradient id="SVGID_00000124873610678208019210000017609305965547084956_" gradientUnits="userSpaceOnUse" x1="385.8454" y1="456.3358" x2="376.2936" y2="502.5027" gradientTransform="matrix(0.998 6.300000e-02 -6.300000e-02 0.998 212.6394 40.405)">
				<stop  offset="0" style="stop-color:#F6B98A"/>
				<stop  offset="1" style="stop-color:#F4C6A6"/>
			</linearGradient>
			<path style="fill:url(#SVGID_00000124873610678208019210000017609305965547084956_);" d="M541.9,512.5c0,0-8.1,16.5-10.2,23.3
				c0,0,2.1,23.5-10.6,34.6c0,0,1.2,27.9,16.3,50.9c0,0,18.2,3.7,42.2-16.5l9.9-35.3c0,0,6.3-42.3-7.2-48.4
				C569,514.9,541.9,512.5,541.9,512.5z"/>
			<path class="st32" d="M539.8,543.4c-2.8-3.1-6.1-4-8-4.3c0,3.7-0.3,10.1-2.1,16.6l5.8,0.7C537.6,552.1,539.8,543.4,539.8,543.4z"
				/>
			<path class="st32" d="M533.5,605.2c0,0,0-4.4,4.3-4.6c4.3-0.3,4.2,3.6,4.2,3.6s1.8-4.8-3.9-5.3
				C532.5,598.4,532.2,603.1,533.5,605.2z"/>
			<path class="st32" d="M583.3,572.3c0,0-0.1,43.1-45.9,48.9c0,0,0,0,0,0c0,0,18.2,3.7,42.2-16.5l9.9-35.3c0,0,0.1-0.5,0.2-1.4
				L583.3,572.3z"/>
			<path class="st45" d="M582.7,535.6l18.1-11.2c0,0,2.7-3.5,0.5-8.1c-2.2-4.5-9.9-13.3-34.8-15.2c-20.2-1.6-32.3,4.9-36.1,7.4
				c-0.1,0.1-0.1,0.2-0.1,0.3c0.1,0.1,0.2,0.2,0.3,0.1c2-0.5,5.6-1.1,9.9-0.5c0,0-10,1.1-17.7,6.9c-0.1,0.1-0.2,0.3-0.1,0.5
				c0.1,0.2,0.3,0.3,0.4,0.2C530,514.8,556.9,511.7,582.7,535.6z"/>
			
				<linearGradient id="SVGID_00000079483444692506329340000014975434450417280677_" gradientUnits="userSpaceOnUse" x1="376.6263" y1="447.4733" x2="390.4225" y2="481.9641" gradientTransform="matrix(0.998 6.300000e-02 -6.300000e-02 0.998 212.6394 40.405)">
				<stop  offset="0" style="stop-color:#BF5000"/>
				<stop  offset="1" style="stop-color:#9E4204"/>
			</linearGradient>
			<path style="fill:url(#SVGID_00000079483444692506329340000014975434450417280677_);" d="M601.3,516.3c-1.4-2.9-5-7.4-13.8-10.9
				c11.1,7.7,8.4,13,8.4,13c-3.6-6.9-9.9-9-9.9-9c5.8,5,6.1,10.6,6.1,10.6c-4.9-6.8-12.5-7.3-12.5-7.3c6.4,1.2,12.5,10.9,9.4,13.2
				c-3.1,2.3-23.8-8-39-12.4c-10.8-3.1-21.9,0.2-27.3,2.3c0,0,0,0,0,0.1c0.1,0.2,0.3,0.3,0.4,0.2c6.8-1.3,33.7-4.4,59.5,19.5
				l18.1-11.2C600.8,524.4,603.6,520.8,601.3,516.3z"/>
			<path class="st32" d="M545.6,545c0,0-2.9,4.5,1.2,14c0,0,14.9-2.4,19.1-0.8c0,0,6.2-3.5,6.8-14.4
				C572.7,544,554.1,537.7,545.6,545z"/>
			
				<linearGradient id="SVGID_00000132778815402535516350000001206917327846416008_" gradientUnits="userSpaceOnUse" x1="406.7675" y1="498.931" x2="411.2782" y2="457.1416" gradientTransform="matrix(0.998 6.300000e-02 -6.300000e-02 0.998 212.6394 40.405)">
				<stop  offset="0" style="stop-color:#BF5000"/>
				<stop  offset="1" style="stop-color:#9E4204"/>
			</linearGradient>
			<path style="fill:url(#SVGID_00000132778815402535516350000001206917327846416008_);" d="M576.6,568c0,0,1.1-21.3,6.2-32.4
				c0,0,9.2-7.8,18.1-11.2c0,0,4.3-0.2,3.1,5.5c-1.3,5.7-3.4,26.5-10.3,33.3l-9.3-4.5L576.6,568z"/>
			
				<linearGradient id="SVGID_00000180330516512094898140000017382539553936317065_" gradientUnits="userSpaceOnUse" x1="415.1652" y1="484.1862" x2="403.1261" y2="506.0755" gradientTransform="matrix(0.998 6.300000e-02 -6.300000e-02 0.998 212.6394 40.405)">
				<stop  offset="0" style="stop-color:#F6B98A"/>
				<stop  offset="1" style="stop-color:#F4C6A6"/>
			</linearGradient>
			<path style="fill:url(#SVGID_00000180330516512094898140000017382539553936317065_);" d="M582.3,563.2c0,0,4.2-13.8,8.6-13.8
				c4.4,0,4.9,9.2,3.4,14.6c-1.5,5.4-7.4,12.5-12.6,8.3L582.3,563.2z"/>
			<path class="st32" d="M586.2,566.4c-0.3,0,1.6-7.6,4.2-8.9C590.5,557.4,591.5,565.8,586.2,566.4z"/>
			<path class="st45" d="M537.7,544.2c0,0,0.8-7.3-1.4-9.1c0,0-3.5-0.3-5.7,0.6c0,0-1.9,2.8,2,6.8
				C532.5,542.7,534.7,543.8,537.7,544.2z"/>
			<path class="st45" d="M545.6,545c0,0,1.5-5.7,5.2-7.7c0,0,11.6-0.4,21.9,6.2c0,0-3.2,2.1-7,2.5C561.9,546.5,545.6,545,545.6,545z
				"/>
			<path class="st37" d="M536.9,552.8l-2.3,5.3l-4,0c0,0-1.4-6.7,0.6-9.6C531.2,548.4,534.2,548.7,536.9,552.8z"/>
			<path class="st37" d="M546.8,559.1c0,0,15.4-0.7,19.1-0.8c0,0-3.4-6.8-11.2-8.4C554.7,549.9,550.3,552.8,546.8,559.1z"/>
			<g>
				<defs>
					<path id="SVGID_00000021089752255283958750000008058992066977653126_" d="M536.9,552.8l-2,5.3l-4.3,0c0,0-1.4-6.7,0.6-9.6
						C531.2,548.4,534.2,548.7,536.9,552.8z"/>
				</defs>
				<clipPath id="SVGID_00000093151024111408106200000006141008407985482667_">
					<use xlink:href="#SVGID_00000021089752255283958750000008058992066977653126_"  style="overflow:visible;"/>
				</clipPath>
				<g style="clip-path:url(#SVGID_00000093151024111408106200000006141008407985482667_);">
					
						<linearGradient id="SVGID_00000045614181167787472530000009448382138097948325_" gradientUnits="userSpaceOnUse" x1="350.7147" y1="499.4482" x2="362.3558" y2="479.5487" gradientTransform="matrix(0.998 6.300000e-02 -6.300000e-02 0.998 212.6394 40.405)">
						<stop  offset="0" style="stop-color:#944A00"/>
						<stop  offset="1" style="stop-color:#3C2415"/>
					</linearGradient>
					<path style="fill:url(#SVGID_00000045614181167787472530000009448382138097948325_);" d="M541.2,553.3c-0.2,2.6-2.4,4.6-5,4.4
						c-2.6-0.2-4.6-2.4-4.4-5c0.2-2.6,2.4-4.6,5-4.4C539.4,548.5,541.4,550.7,541.2,553.3z"/>
					
						<linearGradient id="SVGID_00000155108305779501292880000006165136968587891387_" gradientUnits="userSpaceOnUse" x1="350.6277" y1="486.509" x2="354.8562" y2="490.5882" gradientTransform="matrix(0.998 6.300000e-02 -6.300000e-02 0.998 212.6394 40.405)">
						<stop  offset="0" style="stop-color:#6D6E71"/>
						<stop  offset="1" style="stop-color:#231F20"/>
					</linearGradient>
					<path style="fill:url(#SVGID_00000155108305779501292880000006165136968587891387_);" d="M534.8,555.2c0.1-2.1,1.9-3.7,4-3.5
						c0.5,0,0.9,0.1,1.3,0.3c-0.4-1.5-1.8-2.6-3.4-2.7c-2.1-0.1-3.9,1.5-4,3.5c-0.1,1.6,0.8,3.1,2.2,3.7
						C534.8,556.1,534.8,555.6,534.8,555.2z"/>
					<path class="st52" d="M538.7,553.2c-0.1,1.2-1.1,2.2-2.4,2.1c-1.2-0.1-2.2-1.1-2.1-2.4c0.1-1.2,1.1-2.2,2.4-2.1
						C537.9,550.9,538.8,552,538.7,553.2z"/>
					<path class="st37" d="M535.4,551.1c0,0.5-0.4,0.8-0.9,0.8c-0.5,0-0.8-0.4-0.8-0.9c0-0.5,0.4-0.8,0.9-0.8
						C535.1,550.2,535.4,550.6,535.4,551.1z"/>
					<path class="st37" d="M536.3,552.5c0,0.2-0.2,0.4-0.4,0.4c-0.2,0-0.4-0.2-0.4-0.4c0-0.2,0.2-0.4,0.4-0.4
						C536.1,552,536.3,552.2,536.3,552.5z"/>
				</g>
			</g>
			
				<linearGradient id="SVGID_00000164503495070783709560000001573315001188172722_" gradientUnits="userSpaceOnUse" x1="348.885" y1="488.5436" x2="355.9366" y2="488.5436" gradientTransform="matrix(0.998 6.300000e-02 -6.300000e-02 0.998 212.6394 40.405)">
				<stop  offset="0" style="stop-color:#BF5000"/>
				<stop  offset="1" style="stop-color:#9E4204"/>
			</linearGradient>
			<path style="fill:url(#SVGID_00000164503495070783709560000001573315001188172722_);" d="M530.1,549.5c0,0,0.5-1.4,1.2-1.9
				c0,0,4.3,1.5,5.7,5.2C536.9,552.8,534.1,549.8,530.1,549.5z"/>
			<g>
				<defs>
					<path id="SVGID_00000142165156852296530660000007329639548974442406_" d="M546.8,559.1c0,0,15.4-0.7,19.1-0.8
						c0,0-3.4-6.8-11.2-8.4C554.7,549.9,550.3,552.8,546.8,559.1z"/>
				</defs>
				<clipPath id="SVGID_00000168103079927572275280000013425765071007083673_">
					<use xlink:href="#SVGID_00000142165156852296530660000007329639548974442406_"  style="overflow:visible;"/>
				</clipPath>
				<g style="clip-path:url(#SVGID_00000168103079927572275280000013425765071007083673_);">
					
						<linearGradient id="SVGID_00000028287085797124459450000012200131136755421615_" gradientUnits="userSpaceOnUse" x1="370.7891" y1="499.7592" x2="383.2728" y2="478.4195" gradientTransform="matrix(0.998 6.300000e-02 -6.300000e-02 0.998 212.6394 40.405)">
						<stop  offset="0" style="stop-color:#944A00"/>
						<stop  offset="1" style="stop-color:#3C2415"/>
					</linearGradient>
					<path style="fill:url(#SVGID_00000028287085797124459450000012200131136755421615_);" d="M562,554.4c-0.2,2.8-2.6,4.9-5.4,4.7
						c-2.8-0.2-4.9-2.6-4.7-5.4c0.2-2.8,2.6-4.9,5.4-4.7C560,549.2,562.1,551.6,562,554.4z"/>
					
						<linearGradient id="SVGID_00000168820943656526729500000011564585102316578980_" gradientUnits="userSpaceOnUse" x1="370.6958" y1="485.8835" x2="375.2304" y2="490.2581" gradientTransform="matrix(0.998 6.300000e-02 -6.300000e-02 0.998 212.6394 40.405)">
						<stop  offset="0" style="stop-color:#6D6E71"/>
						<stop  offset="1" style="stop-color:#231F20"/>
					</linearGradient>
					<path style="fill:url(#SVGID_00000168820943656526729500000011564585102316578980_);" d="M555.1,556.3c0.1-2.2,2.1-3.9,4.3-3.8
						c0.5,0,1,0.2,1.4,0.3c-0.5-1.6-1.9-2.8-3.6-2.9c-2.2-0.1-4.2,1.6-4.3,3.8c-0.1,1.7,0.9,3.3,2.4,4
						C555.1,557.3,555,556.8,555.1,556.3z"/>
					<path class="st52" d="M559.3,554.2c-0.1,1.3-1.2,2.3-2.5,2.2s-2.3-1.2-2.2-2.5c0.1-1.3,1.2-2.3,2.5-2.2
						C558.4,551.8,559.4,552.9,559.3,554.2z"/>
					<path class="st37" d="M555.7,551.9c0,0.5-0.5,0.9-1,0.8c-0.5,0-0.9-0.5-0.8-1c0-0.5,0.5-0.9,1-0.8
						C555.4,551,555.8,551.4,555.7,551.9z"/>
					<path class="st37" d="M556.7,553.4c0,0.2-0.2,0.4-0.5,0.4c-0.2,0-0.4-0.2-0.4-0.5c0-0.2,0.2-0.4,0.5-0.4
						C556.5,553,556.7,553.2,556.7,553.4z"/>
				</g>
			</g>
			
				<linearGradient id="SVGID_00000023283048730833365750000013407569394928404905_" gradientUnits="userSpaceOnUse" x1="372.0285" y1="490.1647" x2="385.463" y2="490.1647" gradientTransform="matrix(0.998 6.300000e-02 -6.300000e-02 0.998 212.6394 40.405)">
				<stop  offset="0" style="stop-color:#BF5000"/>
				<stop  offset="1" style="stop-color:#9E4204"/>
			</linearGradient>
			<path style="fill:url(#SVGID_00000023283048730833365750000013407569394928404905_);" d="M554.6,548.6l-1.5,2.5
				c0,0,4.9-1.6,13,7.2C566.2,558.3,563.1,550.4,554.6,548.6z"/>
			<path class="st58" d="M539.8,543.4c0,0-4.1,18-9.8,23.6c0,0-2.6,2.4,0.6,4.4c3.2,2,7.2,1.4,8.2,0.8c0,0-2.2,2.2-7.8,0.2
				c-3.8-1.4-3.1-4.4-1.1-6.3c0,0,7-8.8,9.7-22.6C540.2,540.6,539.1,546.6,539.8,543.4z"/>
			<g>
				<path class="st59" d="M533,583.5c0,0,11.7,1,21.5-1.6c0.7-0.2,1.3-0.4,2-0.6c0,0-10.8,12.8-16.4,12.8c-3.4,0-6.2-4.5-7.8-7.9
					C531.3,584.2,533,583.5,533,583.5z"/>
				<path class="st37" d="M554.5,581.9c-9.8,2.5-23.7,0.6-23.7,0.6s0.5,1.6,1.5,3.7C534.9,586.7,545.2,588,554.5,581.9z"/>
			</g>
		</g>
		<g>
			<g>
				
					<linearGradient id="SVGID_00000161626764447468557340000016508459373707625371_" gradientUnits="userSpaceOnUse" x1="-3105.249" y1="3087.4858" x2="-3111.6074" y2="3099.8132" gradientTransform="matrix(0.8553 -0.5182 0.5182 0.8553 1445.958 -3578.2827)">
					<stop  offset="0" style="stop-color:#F6B98A"/>
					<stop  offset="1" style="stop-color:#F4C6A6"/>
				</linearGradient>
				<path style="fill:url(#SVGID_00000161626764447468557340000016508459373707625371_);" d="M382.3,658.2c0,0-2.8,3.1,0.6,4.6
					c0,0-0.6,3.4,1.9,2.9c2.5-0.5,7.6-1.1,7.6-1.1l4.8,3.4c0,0,0.4-7.8-0.4-9.2C395.9,657.5,382.3,658.2,382.3,658.2z"/>
				<path class="st61" d="M392,661.2c-15-2.7-30.8-5.1-31.1-4c-0.2,1,13.4,5,27.3,8.8C389.6,664.5,391.3,663.1,392,661.2z"/>
				
					<linearGradient id="SVGID_00000151536752973513748940000002970528921829711273_" gradientUnits="userSpaceOnUse" x1="-3089.9055" y1="3078.8394" x2="-3096.6533" y2="3089.48" gradientTransform="matrix(0.8553 -0.5182 0.5182 0.8553 1445.958 -3578.2827)">
					<stop  offset="0" style="stop-color:#F6B98A"/>
					<stop  offset="1" style="stop-color:#F4C6A6"/>
				</linearGradient>
				<path style="fill:url(#SVGID_00000151536752973513748940000002970528921829711273_);" d="M389.6,654.9c0,0,2.1-2.1,3.8-2.3
					s4,1.9,6.9,3.5c2.9,1.6,7.3,4.2,7.3,5.8c0,1.6-1.5,12.3-1.5,12.3S401,656.4,389.6,654.9z"/>
				
					<linearGradient id="SVGID_00000108301058605264907690000016559939347561125280_" gradientUnits="userSpaceOnUse" x1="-3099.366" y1="3098.636" x2="-3098.5874" y2="3083.9722" gradientTransform="matrix(0.8553 -0.5182 0.5182 0.8553 1445.958 -3578.2827)">
					<stop  offset="0" style="stop-color:#F6B98A"/>
					<stop  offset="1" style="stop-color:#F4C6A6"/>
				</linearGradient>
				<path style="fill:url(#SVGID_00000108301058605264907690000016559939347561125280_);" d="M379.7,663.4c0,0,3.5,3.3,3.5,5.5
					c0,0,3.4,4.3,4.8,6.6c1.4,2.2,5.5,7.7,8.2,7.5c2.7-0.3,11.9-2.3,11.4-6.9c-0.5-4.6-2.3-13-2.9-15.2c0,0-11-4.7-14.1-6.8
					c0,0-4.8,1.8-8,1l-4.5,1.8c0,0-0.4,3.9,4,3.2l3.9,0.2c2.5,0.4,6.6,0.7,7.5,1.5c0.9,0.8,2.5,4.2,2.5,4.2s-3,2.4-4.1,2.5
					c-1.1,0.1-4.2-2.6-4.8-3.5C383.2,659.4,379.7,663.4,379.7,663.4z"/>
				<path class="st10" d="M388.1,662c-1,0.8-1.5,2.2-0.6,3.3c0.3,0.3,0.1,0.4,0.4,0.7c11.1,3,22.9,5.9,27.5,6.9
					c10.2,2.3,11.4,0.9,11.8-1c0.4-1.9-0.1-3.6-10.3-5.9c-4.4-1-15.6-3.1-26.7-5.1C389.5,661.1,388.7,661.4,388.1,662z"/>
				<path class="st64" d="M342.9,654.4c0,0,17.4,12.6,23.5,5.6C372.4,653,345.9,645.6,342.9,654.4z"/>
			</g>
		</g>
		
			<linearGradient id="SVGID_00000127753415757163569000000005783827180309664654_" gradientUnits="userSpaceOnUse" x1="529.9512" y1="793.5373" x2="529.8698" y2="807.7769">
			<stop  offset="0" style="stop-color:#F6B98A"/>
			<stop  offset="1" style="stop-color:#F4C6A6"/>
		</linearGradient>
		<path style="fill:url(#SVGID_00000127753415757163569000000005783827180309664654_);" d="M548.8,791.8l-17.9,5.1l-11.6,1.9
			c-2.7-1.7-6.6-4.5-8.2-7.7c-2.6-5.2-6.5-3.5-6.5-3.5l3.8,10.2c0,0,0.9,1.5,2.4,3.4l0,0l0,0c1.6,2,3.9,4.5,6.5,6.2
			c5.1,3.2,19.1,0.8,26.7-2.3c7.6-3,11.3-8.2,11.3-8.2L548.8,791.8z"/>
		
			<linearGradient id="SVGID_00000007424409690487571530000009393362172873705652_" gradientUnits="userSpaceOnUse" x1="2576.436" y1="-9152.3994" x2="2685.9238" y2="-9105.4766" gradientTransform="matrix(0.3489 0.9372 -0.9372 0.3489 -8873.1436 1452.6781)">
			<stop  offset="0" style="stop-color:#FFDE17"/>
			<stop  offset="1" style="stop-color:#E5C213"/>
		</linearGradient>
		<path style="fill:url(#SVGID_00000007424409690487571530000009393362172873705652_);" d="M638.4,776c0,0-44.5-8.9-88.7,16.9
			c0,0-1.7,4.5,1.6,8.4c0,0,42.3,7.6,78.6,6.8c7.6-0.2,14.1-5.6,15.6-13C646.8,788.9,645.7,782.7,638.4,776z"/>
		<path class="st17" d="M549.7,792l4.9-1.8c0,0-1.3,5.1,2,12.1c0,0-4.5,0.9-7.2-0.5C549.4,801.8,547.2,795.7,549.7,792z"/>
		<g>
			<polygon class="st67" points="458.1,771.7 458.7,778 499.4,849.5 554,824.1 555,819.9 			"/>
			<polygon class="st13" points="458.1,771.7 500.3,844.3 555,819.9 502.3,753.2 			"/>
			<path class="st68" d="M483.3,774c0.3,2.6-3,5.1-7.2,5.5c-4.2,0.4-7.9-1.4-8.1-4c-0.3-2.6,3-5.1,7.2-5.5
				C479.4,769.6,483,771.4,483.3,774z"/>
			<path class="st69" d="M506,806.9c0.4,3.9-3.7,7.4-9.1,7.9c-5.4,0.5-10.1-2.2-10.4-6c-0.4-3.9,3.7-7.4,9.1-7.9
				C500.9,800.4,505.6,803.1,506,806.9z"/>
			<path class="st70" d="M493.8,789.7c0.3,3.3-3.4,6.4-8.3,6.8c-4.9,0.5-9.1-1.8-9.5-5.1c-0.3-3.3,3.4-6.4,8.3-6.8
				C489.2,784.1,493.5,786.4,493.8,789.7z"/>
			
				<ellipse transform="matrix(0.9952 -9.813834e-02 9.813834e-02 0.9952 -78.4799 53.8075)" class="st68" cx="507.7" cy="824.7" rx="10.4" ry="7.4"/>
			<path class="st9" d="M503.1,765.6c0.5,2.6-2.6,5.3-6.8,6c-4.2,0.7-8-0.8-8.4-3.4s2.6-5.3,6.8-6
				C498.9,761.5,502.6,763,503.1,765.6z"/>
			<path class="st71" d="M528.2,796.6c0.7,3.8-3.1,7.7-8.4,8.6c-5.3,0.9-10.2-1.4-10.9-5.2c-0.7-3.8,3.1-7.7,8.4-8.6
				S527.5,792.8,528.2,796.6z"/>
			<path class="st72" d="M514.7,780.4c0.6,3.3-2.9,6.6-7.8,7.5c-4.9,0.9-9.3-1.1-9.8-4.4c-0.6-3.3,2.9-6.6,7.8-7.5
				C509.8,775.2,514.2,777.1,514.7,780.4z"/>
			<path class="st73" d="M541.5,812.4c0.7,4-3.3,8.1-9,9.1c-5.7,1-10.8-1.5-11.5-5.5c-0.7-4,3.3-8.1,9-9.1
				C535.6,805.9,540.8,808.4,541.5,812.4z"/>
		</g>
		
			<linearGradient id="SVGID_00000081614704740170555320000015037831304386529706_" gradientUnits="userSpaceOnUse" x1="538.8322" y1="795.9733" x2="530.0961" y2="785.9673">
			<stop  offset="0" style="stop-color:#F6B98A"/>
			<stop  offset="1" style="stop-color:#F4C6A6"/>
		</linearGradient>
		<path style="fill:url(#SVGID_00000081614704740170555320000015037831304386529706_);" d="M534.7,786.6
			c-11.1,0.3-14.1-2.5-14.1-2.5s-5.4,5.3,3.3,8.7l14.7,3l10.7-3.8C549.3,792,545.8,786.3,534.7,786.6z"/>
	</g>
	<g>
		<g>
			<path class="st75" d="M352.7,724c6,8-7.1,44.5-45.4,55.1c-38.2,10.6-40.4-30.9-19.1-42.3C309.6,725.5,339.4,706.4,352.7,724z"/>
			<path class="st76" d="M352.7,724c-0.3-0.4-0.6-0.8-1-1.2c-1.4,13.4-15.8,38.4-45.8,47c-19,5.5-28.7-2.4-31-13
				c-1.8,14.4,7.8,29,32.4,22.2C345.6,768.5,358.7,732,352.7,724z"/>
			<path class="st76" d="M288.4,750.9c0,0,31.9-30.2,51.1-27.4C339.5,723.5,315.9,747.7,288.4,750.9z"/>
			<path class="st76" d="M339.7,734c0,0-45.3,18.4-45.1,26.9C294.8,769.4,334.1,751.2,339.7,734z"/>
		</g>
		<g>
			<path class="st70" d="M296.6,739.7c0,5,0,45.9-58.8,45.9c-55.3,0-58.8-40.9-58.8-45.9c0-5,26.3-9.1,58.8-9.1
				S296.6,734.7,296.6,739.7z"/>
			<path class="st39" d="M291.1,739.8c0,3.7-23.9,6.6-53.3,6.6c-29.4,0-53.3-3-53.3-6.6c0-3.7,23.9-6.6,53.3-6.6
				C267.2,733.1,291.1,736.1,291.1,739.8z"/>
			<g>
				<path class="st77" d="M258.4,710.6c2.1-3.7,6.2-5.7,10.4-5.1l5.7,0.8c1.6,0.2,3.1,1.1,4,2.5c0.9,1.4,1.2,3.1,0.8,4.6l-3.3,12.6
					c-0.7,2.8-1.1,5.7-1,8.6l0.6,16.8c0.1,3.2-1.9,14.9-10.2,17.8c-4.2,1.5-10.1,0.5-14.3-1l-14.7-9.9c-4-2.7-6.5-7-6.8-11.8
					l-0.2-2.5c-0.6-8.1,3.9-15.8,11.2-19.3l10-4.8c2.1-1,3.9-2.7,5.1-4.7L258.4,710.6z"/>
				<g>
					<path class="st75" d="M270.6,709.4c0,0,4.8-14.4,0.6-17.4l-4.6,0.6C266.6,692.6,271.2,697.9,270.6,709.4z"/>
					<path class="st78" d="M271,708.5c0,0,0.6-12.2,15.9-16.5C286.8,691.9,288.8,712.4,271,708.5z"/>
				</g>
			</g>
			<g>
				<path class="st79" d="M200.9,721c0,0,3.9-0.9,12.8-0.2c8.9,0.7,20.8,1.8,16.4,9.8C225.7,738.5,200.9,721,200.9,721z"/>
				<path class="st10" d="M214,729.3c0,0-8.1-17.2-3.6-21.6l4.4-0.9C214.7,706.9,211.8,724.4,214,729.3z"/>
				<g>
					<path class="st77" d="M214.2,728.1c0,0-4.6-9.1,6.3-16.4c10.9-7.3,13.2-10.8,13.2-10.8S241.4,723.9,214.2,728.1z"/>
				</g>
				<path class="st68" d="M200.2,721.3c0,0,4.8-2.4,10.6,3.4c5.9,5.8,15.3-2.1,19.3,0c7.1,3.7,3.8,31.3-15,31.3
					C193.4,756,189.1,727.9,200.2,721.3z"/>
				<g>
					<path class="st69" d="M207.1,746.4c-1.3,0.8-1.6,3.8,1.5,2.8C211.7,748.3,209.2,745.1,207.1,746.4z"/>
				</g>
			</g>
			<path class="st70" d="M296.6,739.7c0,5,0,45.9-58.8,45.9c-55.3,0-58.8-40.9-58.8-45.9c0,0,26.3,8.9,58.8,8.9
				S296.6,739.7,296.6,739.7z"/>
			<path class="st39" d="M292.4,744.4c0,0-17.2,7.7-50.8,7.1l-3.8,30.4C237.8,782,285.6,778.3,292.4,744.4z"/>
		</g>
		<g>
			<path class="st80" d="M218.8,811.3c-2.7,0-5.1-1.9-5.8-4.5c-2.3-9.2-6.7-29.6-2.3-34c5.7-5.7,56.5-12.8,75.2-5.1
				c17.7,7.3,10.2,29.9,6.1,41.6c-0.4,1.2-1.5,1.9-2.8,1.9H218.8z"/>
			<path class="st11" d="M211.8,782.4c-0.1-1,0.7-1.8,1.6-1.8c9.2-0.6,52.4-3.1,60-2.8c8.4,0.3,7.9,5.2,7.8,15.1
				c-0.2,15,3.2,17.2-21.5,16.2c-24.7-1-40.1-1.5-40.1-1.5S213.3,809.2,211.8,782.4z"/>
			<path class="st11" d="M290.7,778.1c0,0-6.3-1.3-6.2,2.2c0.1,3.6-0.7,18.2-1,22.5c-0.3,4.3-0.2,5.6,2.2,6.2
				c2.5,0.6,5.4,0.7,7.6-7.2C295.7,793.9,299.8,779.8,290.7,778.1z"/>
			<circle class="st81" cx="230.6" cy="768.8" r="0.9"/>
			<circle class="st81" cx="236.4" cy="769.5" r="0.7"/>
			<path class="st81" d="M237.1,772.4c0,0.4-0.3,0.7-0.7,0.7c-0.4,0-0.7-0.3-0.7-0.7c0-0.4,0.3-0.7,0.7-0.7
				C236.8,771.7,237.1,772,237.1,772.4z"/>
			<path class="st81" d="M234.3,770.7c0,0.3-0.2,0.5-0.5,0.5c-0.3,0-0.5-0.2-0.5-0.5c0-0.3,0.2-0.5,0.5-0.5
				C234.1,770.2,234.3,770.4,234.3,770.7z"/>
			<circle class="st81" cx="235.2" cy="767.9" r="0.5"/>
			<path class="st81" d="M242.1,768.2c0,0.4-0.4,0.8-0.8,0.8c-0.4,0-0.8-0.4-0.8-0.8c0-0.4,0.4-0.8,0.8-0.8
				C241.8,767.4,242.1,767.7,242.1,768.2z"/>
			<circle class="st81" cx="240.4" cy="770.7" r="0.9"/>
			<path class="st81" d="M239.5,768.2c0,0.2-0.1,0.3-0.3,0.3c-0.2,0-0.3-0.1-0.3-0.3c0-0.2,0.1-0.3,0.3-0.3
				C239.3,767.9,239.5,768,239.5,768.2z"/>
			<path class="st81" d="M227.9,770.9c0,0.4-0.3,0.7-0.7,0.7c-0.4,0-0.7-0.3-0.7-0.7c0-0.4,0.3-0.7,0.7-0.7
				C227.6,770.2,227.9,770.5,227.9,770.9z"/>
			<path class="st81" d="M230.6,772.8c0,0.2-0.2,0.4-0.4,0.4c-0.2,0-0.4-0.2-0.4-0.4c0-0.2,0.2-0.4,0.4-0.4
				C230.4,772.4,230.6,772.6,230.6,772.8z"/>
			<circle class="st81" cx="229.9" cy="771.4" r="0.7"/>
			<path class="st81" d="M224.6,770.1c0,0.3-0.3,0.6-0.6,0.6c-0.3,0-0.6-0.3-0.6-0.6c0-0.3,0.3-0.6,0.6-0.6
				C224.4,769.5,224.6,769.8,224.6,770.1z"/>
			<circle class="st81" cx="224.3" cy="773.1" r="0.8"/>
			<path class="st81" d="M228,773.5c0,0.2-0.2,0.4-0.4,0.4s-0.4-0.2-0.4-0.4c0-0.2,0.2-0.4,0.4-0.4S228,773.2,228,773.5z"/>
			<path class="st81" d="M221.1,772.2c0,0.4-0.3,0.7-0.7,0.7c-0.4,0-0.7-0.3-0.7-0.7c0-0.4,0.3-0.7,0.7-0.7
				C220.8,771.5,221.1,771.8,221.1,772.2z"/>
			<path class="st81" d="M246.6,768.2c0,0.5-0.4,0.9-0.9,0.9c-0.5,0-0.9-0.4-0.9-0.9c0-0.5,0.4-0.9,0.9-0.9
				C246.2,767.4,246.6,767.8,246.6,768.2z"/>
			<path class="st81" d="M248.4,771.1c0,0.5-0.4,0.9-0.9,0.9c-0.5,0-0.9-0.4-0.9-0.9s0.4-0.9,0.9-0.9
				C248,770.2,248.4,770.6,248.4,771.1z"/>
			<circle class="st81" cx="245.1" cy="773.9" r="0.6"/>
			<circle class="st81" cx="243.9" cy="770.3" r="0.6"/>
			<circle class="st81" cx="250.1" cy="766.6" r="0.8"/>
			<path class="st81" d="M252.6,770c0,0.5-0.4,0.8-0.8,0.8c-0.5,0-0.8-0.4-0.8-0.8s0.4-0.8,0.8-0.8
				C252.2,769.1,252.6,769.5,252.6,770z"/>
			<path class="st81" d="M249.7,768.8c0,0.3-0.2,0.5-0.5,0.5c-0.3,0-0.5-0.2-0.5-0.5s0.2-0.5,0.5-0.5
				C249.5,768.4,249.7,768.6,249.7,768.8z"/>
			<path class="st81" d="M256.7,767.7c0,0.6-0.5,1.1-1.1,1.1c-0.6,0-1.1-0.5-1.1-1.1c0-0.6,0.5-1.1,1.1-1.1
				C256.2,766.6,256.7,767.1,256.7,767.7z"/>
			<path class="st81" d="M257.6,770.3c0,0.4-0.4,0.8-0.8,0.8s-0.8-0.4-0.8-0.8c0-0.4,0.4-0.8,0.8-0.8S257.6,769.9,257.6,770.3z"/>
			<path class="st81" d="M261.1,766.6c0,0.4-0.3,0.7-0.7,0.7s-0.7-0.3-0.7-0.7c0-0.4,0.3-0.7,0.7-0.7S261.1,766.2,261.1,766.6z"/>
			<circle class="st81" cx="261.6" cy="769.3" r="0.5"/>
			<path class="st81" d="M266.6,766.4c0,0.3-0.2,0.5-0.5,0.5c-0.3,0-0.5-0.2-0.5-0.5c0-0.3,0.2-0.5,0.5-0.5
				C266.3,765.9,266.6,766.1,266.6,766.4z"/>
			<path class="st81" d="M267.5,769.6c0,0.3-0.2,0.5-0.5,0.5c-0.3,0-0.5-0.2-0.5-0.5c0-0.3,0.2-0.5,0.5-0.5
				C267.3,769.1,267.5,769.3,267.5,769.6z"/>
			<circle class="st81" cx="263.4" cy="767.2" r="0.3"/>
			<path class="st81" d="M260.4,772.3c0,0.4-0.3,0.7-0.7,0.7c-0.4,0-0.7-0.3-0.7-0.7s0.3-0.7,0.7-0.7
				C260.1,771.7,260.4,772,260.4,772.3z"/>
			<circle class="st81" cx="263.7" cy="771.3" r="0.6"/>
			<path class="st81" d="M264.9,768.8c0,0.3-0.3,0.6-0.6,0.6c-0.3,0-0.6-0.3-0.6-0.6c0-0.3,0.3-0.6,0.6-0.6
				C264.6,768.2,264.9,768.5,264.9,768.8z"/>
			<path class="st81" d="M259.7,768.3c0,0.2-0.1,0.3-0.3,0.3c-0.2,0-0.3-0.1-0.3-0.3c0-0.2,0.1-0.3,0.3-0.3
				C259.5,768,259.7,768.1,259.7,768.3z"/>
			<path class="st81" d="M270.1,766.4c0,0.3-0.3,0.6-0.6,0.6c-0.3,0-0.6-0.3-0.6-0.6c0-0.3,0.3-0.6,0.6-0.6
				C269.9,765.9,270.1,766.1,270.1,766.4z"/>
			<circle class="st81" cx="270.2" cy="768.4" r="0.7"/>
			<path class="st81" d="M273.6,767.3c0,0.4-0.3,0.7-0.7,0.7c-0.4,0-0.7-0.3-0.7-0.7c0-0.4,0.3-0.7,0.7-0.7
				C273.3,766.6,273.6,766.9,273.6,767.3z"/>
			<circle class="st81" cx="275.8" cy="767.4" r="0.8"/>
			<path class="st81" d="M279.7,767.9c0,0.3-0.2,0.5-0.5,0.5c-0.3,0-0.5-0.2-0.5-0.5s0.2-0.5,0.5-0.5
				C279.5,767.4,279.7,767.6,279.7,767.9z"/>
			<path class="st81" d="M275,766.3c0,0.2-0.2,0.4-0.4,0.4c-0.2,0-0.4-0.2-0.4-0.4c0-0.2,0.2-0.4,0.4-0.4
				C274.8,765.9,275,766,275,766.3z"/>
			<path class="st81" d="M272.2,765.9c0,0-0.2,0-0.4,0c-0.2,0-0.4,0-0.4,0s0.2,0,0.4,0C272,765.9,272.2,765.9,272.2,765.9z"/>
		</g>
		<g>
			<path class="st82" d="M290.3,769.3c0,0-1.5-7.8,8.6-9.7c10.1-1.9,21.7-2.4,22,8.1C321.2,778.2,290.3,769.3,290.3,769.3z"/>
			<path class="st10" d="M306.2,772.5c0,0-1.5-23-7.3-24.7l-4.6,3.5C294.3,751.3,301.6,756.1,306.2,772.5z"/>
			<path class="st82" d="M298.9,765.6c0,0,6.7,1.6,11.3-2.8c4.6-4.3,14.4-5.6,19.2,0.3c5.8,7,3.1,33.3-18.6,36
				c-21.7,2.7-28.8-26-24.4-31.6C292.8,759.5,298.9,765.6,298.9,765.6z"/>
			<path class="st76" d="M295.5,747.8c-0.9,1.1-2.3,2.6-1.2,3.5c1.1,0.9,5.9-1.6,5.9-2.7C300.2,747.5,296.8,746.3,295.5,747.8z"/>
		</g>
		<g>
			<path class="st82" d="M310.2,778.1c0,0-1.5-7.8,8.6-9.7c10.1-1.9,21.7-2.4,22,8.1C341,786.9,310.2,778.1,310.2,778.1z"/>
			<path class="st75" d="M326,781.2c0,0-1.5-23-7.3-24.7l-4.6,3.5C314.1,760.1,321.4,764.9,326,781.2z"/>
			<path class="st77" d="M318.7,774.4c0,0,6.7,1.6,11.3-2.8c4.6-4.3,14.4-5.6,19.2,0.3c5.8,7,3.1,33.3-18.6,36
				c-21.7,2.7-28.8-26-24.4-31.6C312.6,768.2,318.7,774.4,318.7,774.4z"/>
			<path class="st78" d="M326,774c0,0-4.9-13.1,9.2-24.7C335.2,749.3,346.6,770,326,774z"/>
			<path class="st76" d="M315.3,756.5c-0.9,1.1-2.3,2.6-1.2,3.5c1.1,0.9,5.9-1.6,5.9-2.7C320.1,756.2,316.6,755.1,315.3,756.5z"/>
		</g>
		<g>
			<path class="st10" d="M218.1,779.9c8.3,1.4,25.8,9.9,21.6,28.9c-4.2,19-30.3,25.8-52.1,18.6C165.8,820.1,176.6,772.7,218.1,779.9
				z"/>
			<path class="st83" d="M221.9,780.9c5.6,4.7,9.9,11.9,7.5,22.3c-4,18-27.6,25-48.6,19.6c1.7,2.1,4,3.7,6.8,4.6
				c21.8,7.2,47.8,0.5,52.1-18.6C243.3,792.3,230.7,783.8,221.9,780.9z"/>
			<path class="st83" d="M194.8,787.6c-2.1,2.2,12.3,5.7,18.9,8.2c6.6,2.4,11.7,0,11.9-2.1C225.8,791.5,200.4,781.6,194.8,787.6z"/>
			<path class="st83" d="M189.2,798.7c-2.1,2.2,12.3,5.7,18.9,8.2c6.6,2.4,11.7,0,11.9-2.1S194.8,792.7,189.2,798.7z"/>
			<path class="st83" d="M183.5,809.4c-1.6,1.7,9.5,4.5,14.6,6.4c5.1,1.9,9.1,0,9.2-1.7C207.6,812.4,187.9,804.7,183.5,809.4z"/>
			<g>
				<path class="st84" d="M222.1,788.2c0,0.2-0.2,0.4-0.4,0.4c-0.2,0-0.4-0.2-0.4-0.4s0.2-0.4,0.4-0.4
					C221.9,787.8,222.1,788,222.1,788.2z"/>
				<path class="st84" d="M224.7,789.3c0,0.4-0.2,0.7-0.5,0.7c-0.3,0-0.5-0.3-0.5-0.7c0-0.4,0.2-0.7,0.5-0.7
					C224.5,788.6,224.7,788.9,224.7,789.3z"/>
				<path class="st84" d="M223.7,786.1c0,0.2-0.2,0.4-0.5,0.4c-0.3,0-0.5-0.2-0.5-0.4c0-0.2,0.2-0.4,0.5-0.4
					C223.5,785.7,223.7,785.9,223.7,786.1z"/>
				<circle class="st84" cx="227" cy="790.6" r="0.6"/>
				<path class="st84" d="M226.4,787.8c0,0.2-0.2,0.4-0.4,0.4c-0.2,0-0.4-0.2-0.4-0.4c0-0.2,0.2-0.4,0.4-0.4
					C226.2,787.4,226.4,787.6,226.4,787.8z"/>
				<path class="st84" d="M221.3,786.1c0,0.2-0.2,0.4-0.4,0.4c-0.2,0-0.4-0.2-0.4-0.4c0-0.2,0.2-0.4,0.4-0.4
					C221.2,785.7,221.3,785.9,221.3,786.1z"/>
				<path class="st84" d="M218.9,786.9c0,0.2-0.2,0.4-0.4,0.4c-0.2,0-0.4-0.2-0.4-0.4c0-0.2,0.2-0.4,0.4-0.4
					C218.7,786.5,218.9,786.7,218.9,786.9z"/>
				<path class="st84" d="M222.6,784c0,0.1-0.1,0.3-0.3,0.3c-0.1,0-0.3-0.1-0.3-0.3c0-0.1,0.1-0.3,0.3-0.3
					C222.4,783.7,222.6,783.9,222.6,784z"/>
				<circle class="st84" cx="228.8" cy="794" r="0.5"/>
				<path class="st84" d="M230.2,792.5c0,0.2-0.2,0.4-0.4,0.4c-0.2,0-0.4-0.2-0.4-0.4c0-0.2,0.2-0.4,0.4-0.4
					C230,792.1,230.2,792.2,230.2,792.5z"/>
				<path class="st84" d="M218.9,798.9c0,0.1-0.1,0.2-0.2,0.2c-0.1,0-0.2-0.1-0.2-0.2c0-0.1,0.1-0.2,0.2-0.2
					C218.8,798.7,218.9,798.8,218.9,798.9z"/>
				<path class="st84" d="M220.5,798.7c0,0.2-0.1,0.3-0.3,0.3c-0.2,0-0.3-0.1-0.3-0.3c0-0.2,0.1-0.3,0.3-0.3
					C220.4,798.4,220.5,798.5,220.5,798.7z"/>
				<path class="st84" d="M221.2,800.2c0,0.3-0.2,0.5-0.5,0.5c-0.3,0-0.5-0.2-0.5-0.5c0-0.3,0.2-0.5,0.5-0.5
					C221,799.7,221.2,799.9,221.2,800.2z"/>
				<path class="st84" d="M222.8,799.5c0,0.3-0.3,0.6-0.6,0.6c-0.3,0-0.6-0.3-0.6-0.6s0.3-0.6,0.6-0.6
					C222.5,798.9,222.8,799.2,222.8,799.5z"/>
				<path class="st84" d="M225.6,801.1c0,0.3-0.2,0.5-0.5,0.5c-0.3,0-0.5-0.2-0.5-0.5c0-0.3,0.2-0.5,0.5-0.5
					C225.4,800.6,225.6,800.9,225.6,801.1z"/>
				<path class="st84" d="M226,798.5c0,0.4-0.3,0.7-0.7,0.7c-0.4,0-0.7-0.3-0.7-0.7c0-0.4,0.3-0.7,0.7-0.7
					C225.7,797.8,226,798.1,226,798.5z"/>
				<circle class="st84" cx="223.5" cy="800.9" r="0.2"/>
				<circle class="st84" cx="227.5" cy="799.9" r="0.4"/>
				<path class="st84" d="M229.6,799.1c0,0.2-0.2,0.4-0.4,0.4c-0.2,0-0.4-0.2-0.4-0.4c0-0.2,0.2-0.4,0.4-0.4
					C229.4,798.7,229.6,798.9,229.6,799.1z"/>
				<path class="st84" d="M230.5,802c0,0.5-0.4,0.8-0.8,0.8c-0.5,0-0.8-0.4-0.8-0.8s0.4-0.8,0.8-0.8
					C230.1,801.1,230.5,801.5,230.5,802z"/>
				<path class="st84" d="M231.2,800.8c0,0.3-0.2,0.5-0.5,0.5c-0.3,0-0.5-0.2-0.5-0.5c0-0.3,0.2-0.5,0.5-0.5
					C230.9,800.4,231.2,800.6,231.2,800.8z"/>
				<circle class="st84" cx="227.1" cy="802.7" r="0.4"/>
				<circle class="st84" cx="228.2" cy="805.2" r="0.6"/>
				<path class="st84" d="M225.6,804c0,0.3-0.2,0.5-0.5,0.5c-0.3,0-0.5-0.2-0.5-0.5c0-0.3,0.2-0.5,0.5-0.5
					C225.4,803.6,225.6,803.8,225.6,804z"/>
				<circle class="st84" cx="212.4" cy="810.6" r="0.4"/>
				<path class="st84" d="M214.7,811c0,0.2-0.2,0.5-0.5,0.5c-0.2,0-0.5-0.2-0.5-0.5c0-0.2,0.2-0.5,0.5-0.5
					C214.5,810.6,214.7,810.8,214.7,811z"/>
				<path class="st84" d="M214.7,812.7c0,0.2-0.2,0.5-0.5,0.5c-0.2,0-0.5-0.2-0.5-0.5c0-0.2,0.2-0.5,0.5-0.5
					C214.5,812.2,214.7,812.4,214.7,812.7z"/>
				<circle class="st84" cx="216.2" cy="812.1" r="0.6"/>
				<circle class="st84" cx="211.9" cy="812.6" r="0.5"/>
				<circle class="st84" cx="213.7" cy="815.3" r="0.6"/>
				<circle class="st84" cx="216.2" cy="814.9" r="0.6"/>
				<path class="st84" d="M210.6,810.4c0,0.1,0,0.2,0,0.2S210.6,810.5,210.6,810.4c0-0.1,0-0.2,0-0.2S210.6,810.3,210.6,810.4z"/>
				<path class="st84" d="M209,810.2c0,0.2-0.1,0.3-0.3,0.3c-0.2,0-0.3-0.1-0.3-0.3s0.1-0.3,0.3-0.3C208.9,810,209,810.1,209,810.2z
					"/>
				<path class="st84" d="M211.5,810.9c0,0.4-0.3,0.7-0.7,0.7c-0.4,0-0.7-0.3-0.7-0.7c0-0.4,0.3-0.7,0.7-0.7
					C211.1,810.2,211.5,810.5,211.5,810.9z"/>
				<path class="st84" d="M220,814.9c0,0.4-0.3,0.7-0.7,0.7s-0.7-0.3-0.7-0.7c0-0.4,0.3-0.7,0.7-0.7S220,814.5,220,814.9z"/>
				<path class="st84" d="M220.9,813.7c0,0.4-0.3,0.6-0.6,0.6c-0.4,0-0.6-0.3-0.6-0.6c0-0.4,0.3-0.6,0.6-0.6
					C220.6,813.1,220.9,813.3,220.9,813.7z"/>
				<path class="st84" d="M224.5,814.3c0,0.2-0.2,0.4-0.4,0.4c-0.2,0-0.4-0.2-0.4-0.4c0-0.2,0.2-0.4,0.4-0.4
					C224.3,813.9,224.5,814.1,224.5,814.3z"/>
				<circle class="st84" cx="222.1" cy="817" r="0.5"/>
				<path class="st84" d="M220.3,819.6c0,0.4-0.3,0.7-0.7,0.7c-0.4,0-0.7-0.3-0.7-0.7c0-0.4,0.3-0.7,0.7-0.7
					C220,818.9,220.3,819.2,220.3,819.6z"/>
				<circle class="st84" cx="216.2" cy="818.5" r="0.6"/>
				<path class="st84" d="M217.7,817c0,0.2-0.2,0.4-0.4,0.4c-0.2,0-0.4-0.2-0.4-0.4c0-0.2,0.2-0.4,0.4-0.4
					C217.5,816.6,217.7,816.7,217.7,817z"/>
				<path class="st84" d="M213.1,819.1c0,0.3-0.3,0.6-0.6,0.6c-0.3,0-0.6-0.3-0.6-0.6c0-0.3,0.3-0.6,0.6-0.6
					C212.8,818.5,213.1,818.7,213.1,819.1z"/>
				<circle class="st84" cx="209.1" cy="820" r="0.3"/>
				<circle class="st84" cx="211.3" cy="816.4" r="0.2"/>
				<circle class="st84" cx="211.1" cy="818.2" r="0.4"/>
				<path class="st84" d="M212.1,815.1c0,0.2-0.1,0.3-0.3,0.3c-0.2,0-0.3-0.1-0.3-0.3c0-0.2,0.1-0.3,0.3-0.3
					C211.9,814.9,212.1,815,212.1,815.1z"/>
				<circle class="st84" cx="213" cy="817.7" r="0.3"/>
				<path class="st84" d="M215.2,817.5c0,0.3-0.2,0.5-0.5,0.5s-0.5-0.2-0.5-0.5c0-0.3,0.2-0.5,0.5-0.5S215.2,817.2,215.2,817.5z"/>
				<circle class="st84" cx="214.9" cy="820" r="0.4"/>
			</g>
		</g>
		<g>
			<path class="st85" d="M343.3,804.9c2.4,8.4-103,35.3-106.8,20.6C232.7,810.8,337,782.4,343.3,804.9z"/>
			<path class="st86" d="M343.3,804.9c-0.1-0.5-0.3-0.9-0.5-1.3c-24.1,10.8-96,26.8-99.1,14.7c-0.1-0.5-0.1-1.1,0-1.7
				c-5.1,3.1-7.9,6.2-7.2,8.9C240.3,840.2,345.7,813.3,343.3,804.9z"/>
			<path class="st86" d="M326.7,799.4c-2.4-0.6-1.9,6.4,1.5,6.2C331.6,805.5,331.3,800.7,326.7,799.4z"/>
			<path class="st86" d="M319.3,799.6c-2.8-0.8-3,8.6,0.4,7.3C323.2,805.7,323.6,800.8,319.3,799.6z"/>
			<path class="st86" d="M309.7,800.6c-2.8-0.8-3,8.6,0.4,7.3S313.9,801.8,309.7,800.6z"/>
			<path class="st86" d="M300,801.8c-3.4-1.1-3,10.2,1,8.9C305.1,809.5,305.3,803.5,300,801.8z"/>
			<path class="st86" d="M290.4,803.5c-3.3-1.1-2.9,9.8,1,8.6C295.3,810.9,295.4,805.1,290.4,803.5z"/>
			<path class="st86" d="M278.7,806.4c-3.4-1.1-3,10.2,1,8.9C283.8,814,283.9,808.1,278.7,806.4z"/>
			<path class="st86" d="M269,808c-3.3-1.1-2.9,9.8,1,8.6C273.9,815.4,274.1,809.7,269,808z"/>
			<path class="st86" d="M258.8,812.2c-2.4-0.6-1.9,6.4,1.5,6.2C263.7,818.3,263.5,813.5,258.8,812.2z"/>
		</g>
	</g>
</g>
</svg>
